<?xml version="1.0" standalone="no"?>
<!DOCTYPE svg PUBLIC "-//W3C//DTD SVG 20010904//EN"
 "http://www.w3.org/TR/2001/REC-SVG-20010904/DTD/svg10.dtd">
<svg version="1.0" xmlns="http://www.w3.org/2000/svg"
 width="500.000000pt" height="500.000000pt" viewBox="0 0 500.000000 500.000000"
 preserveAspectRatio="xMidYMid meet">

<g transform="translate(0.000000,500.000000) scale(0.100000,-0.100000)"
fill="#000000" stroke="none">
<path d="M2572 3820 c0 -19 2 -27 5 -17 2 9 2 25 0 35 -3 9 -5 1 -5 -18z"/>
<path d="M2627 3821 c-4 -17 -3 -21 5 -13 5 5 8 16 6 23 -3 8 -7 3 -11 -10z"/>
<path d="M2367 3823 c-12 -11 -8 -38 9 -59 14 -18 15 -18 4 5 -7 12 -10 32 -7
42 5 20 4 23 -6 12z"/>
<path d="M2175 3795 c-436 -96 -814 -441 -959 -876 -53 -157 -70 -282 -63
-469 8 -215 44 -365 132 -541 67 -138 132 -225 255 -350 181 -183 358 -285
605 -349 218 -57 490 -53 709 11 124 36 318 131 410 201 232 175 410 428 489
696 9 28 12 52 8 52 -4 0 -16 -30 -26 -67 -24 -89 -132 -302 -197 -388 -216
-286 -523 -470 -870 -521 -138 -20 -341 -14 -468 15 -243 55 -461 173 -639
346 -159 154 -265 320 -330 518 -46 139 -62 228 -68 382 -8 229 33 418 137
630 70 141 133 228 250 345 177 178 411 307 645 355 44 9 81 18 84 21 8 8 -43
3 -104 -11z"/>
<path d="M2601 3795 c0 -5 6 -21 14 -35 8 -14 14 -20 14 -15 0 6 -6 21 -14 35
-8 14 -14 21 -14 15z"/>
<path d="M2842 3765 c0 -16 2 -22 5 -12 2 9 2 23 0 30 -3 6 -5 -1 -5 -18z"/>
<path d="M2973 3725 c0 -22 2 -30 4 -17 2 12 2 30 0 40 -3 9 -5 -1 -4 -23z"/>
<path d="M2408 3743 c7 -3 16 -2 19 1 4 3 -2 6 -13 5 -11 0 -14 -3 -6 -6z"/>
<path d="M3032 3700 c0 -19 2 -27 5 -17 2 9 2 25 0 35 -3 9 -5 1 -5 -18z"/>
<path d="M3211 3624 c0 -11 3 -14 6 -6 3 7 2 16 -1 19 -3 4 -6 -2 -5 -13z"/>
<path d="M3222 3530 c0 -14 2 -19 5 -12 2 6 2 18 0 25 -3 6 -5 1 -5 -13z"/>
<path d="M3426 3384 c-9 -8 -15 -25 -15 -37 1 -20 2 -21 6 -2 3 11 12 28 21
38 19 21 9 23 -12 1z"/>
<path d="M3570 3239 c-22 -18 -22 -19 -3 -10 12 6 25 16 28 21 9 15 3 12 -25
-11z"/>
<path d="M3519 3203 c-13 -16 -12 -17 4 -4 16 13 21 21 13 21 -2 0 -10 -8 -17
-17z"/>
<path d="M2073 3085 c-144 -44 -268 -188 -308 -356 -32 -138 -10 -326 52 -442
58 -107 187 -206 288 -221 l40 -6 -38 15 c-247 95 -352 496 -211 804 47 103
117 171 209 203 58 20 31 23 -32 3z"/>
<path d="M2268 3093 c6 -2 18 -2 25 0 6 3 1 5 -13 5 -14 0 -19 -2 -12 -5z"/>
<path d="M2348 3070 c59 -31 94 -79 100 -139 7 -74 -17 -111 -127 -202 -118
-98 -151 -144 -151 -211 0 -39 5 -54 25 -73 30 -31 50 -34 35 -6 -5 11 -10 35
-10 53 0 29 15 47 125 153 134 129 156 164 157 246 0 89 -73 174 -167 194 -25
6 -23 3 13 -15z"/>
<path d="M3658 3083 c7 -3 16 -2 19 1 4 3 -2 6 -13 5 -11 0 -14 -3 -6 -6z"/>
<path d="M2560 3013 c1 -68 1 -68 15 -35 16 38 93 78 173 92 37 6 23 8 -70 9
l-118 1 0 -67z"/>
<path d="M2880 2678 c-1 -520 -8 -578 -75 -597 -21 -7 11 -9 105 -10 122 0
132 1 104 13 -20 9 -35 25 -43 46 -7 23 -11 175 -11 491 l0 459 -40 0 -40 0 0
-402z"/>
<path d="M3106 3065 c90 -20 140 -50 157 -95 3 -8 6 13 6 48 l1 62 -112 -1
-113 -1 61 -13z"/>
<path d="M3619 3063 c-13 -16 -12 -17 4 -4 16 13 21 21 13 21 -2 0 -10 -8 -17
-17z"/>
<path d="M3691 3006 c-7 -8 -22 -17 -34 -19 -21 -4 -21 -4 -1 -6 22 -1 63 24
53 33 -3 4 -12 0 -18 -8z"/>
<path d="M3760 2860 c-13 -8 -12 -10 3 -10 9 0 17 5 17 10 0 12 -1 12 -20 0z"/>
<path d="M3718 2843 c7 -3 16 -2 19 1 4 3 -2 6 -13 5 -11 0 -14 -3 -6 -6z"/>
<path d="M3778 2693 c6 -2 18 -2 25 0 6 3 1 5 -13 5 -14 0 -19 -2 -12 -5z"/>
<path d="M3708 2683 c7 -3 16 -2 19 1 4 3 -2 6 -13 5 -11 0 -14 -3 -6 -6z"/>
<path d="M3768 2613 c12 -2 30 -2 40 0 9 3 -1 5 -23 4 -22 0 -30 -2 -17 -4z"/>
<path d="M3758 2473 c12 -2 32 -2 45 0 12 2 2 4 -23 4 -25 0 -35 -2 -22 -4z"/>
<path d="M3749 2283 c-13 -17 -13 -17 6 -3 11 8 22 16 24 17 2 2 0 3 -6 3 -6
0 -17 -8 -24 -17z"/>
<path d="M2462 2185 c-32 -46 -87 -86 -147 -107 -49 -17 -49 -17 -15 -17 44
-1 171 26 182 37 5 5 8 34 6 65 l-3 57 -23 -35z"/>
<path d="M2183 2053 c15 -2 39 -2 55 0 15 2 2 4 -28 4 -30 0 -43 -2 -27 -4z"/>
<path d="M2508 1613 c6 -2 18 -2 25 0 6 3 1 5 -13 5 -14 0 -19 -2 -12 -5z"/>
<path d="M2668 1613 c6 -2 18 -2 25 0 6 3 1 5 -13 5 -14 0 -19 -2 -12 -5z"/>
</g>
</svg>
